<svg xmlns="http://www.w3.org/2000/svg" width="327.568" height="248"><path fill="none" stroke="#ccc" stroke-miterlimit="10" stroke-width="2" d="M45.811 1h262.53M45.811 28.732h262.53M45.811 55.725h262.53M45.811 81.978h262.53M45.811 108.97h262.53M45.811 136.702h262.53M45.811 162.955h262.53M45.811 189.948h262.53M45.811 216.94h262.53"/><path fill="#0b72b9" d="M65.778 135.593h45.111v106.491H65.778zM131.595 135.593h45.111v107.231h-45.111zM197.412 54.985h45.111v187.099h-45.111zM263.23 27.623h45.111v214.461H263.23z"/><path d="M327.568 242.084H45.071V1" fill="none" stroke="#000" stroke-miterlimit="10" stroke-width="2"/><path fill="none" stroke="#000" stroke-miterlimit="10" stroke-width="3" d="M87.963 248v-5.916M154.15 247.26v-5.916M219.968 247.26v-5.916M285.046 248v-5.916"/><g><path d="M86.558 89.343a58.223 58.223 0 0 0-44.63 95.006L1.676 225.755a6.3 6.3 0 0 0 .311 8.867 6.172 6.172 0 0 0 4.311 1.671 6.3 6.3 0 0 0 4.518-1.982l39.986-41.147A58.262 58.262 0 1 0 86.558 89.343zm33.2 90.273a45.68 45.68 0 1 1 13.082-32.435 45.459 45.459 0 0 1-13.078 32.435z"/><path d="M132.845 147.18a45.728 45.728 0 1 1-13.7-32.184 45.4 45.4 0 0 1 13.7 32.184z" fill="#0b72b9"/><g fill="#f2f2f2" font-size="10" font-family="Courier-Oblique, Courier" font-style="oblique"><text transform="translate(82.332 110.867)"><tspan x="0" y="0">11</tspan></text><text transform="translate(58.781 123.164)"><tspan x="0" y="0">001000101</tspan></text><text transform="translate(49.994 135.462)"><tspan x="0" y="0">011101001010</tspan></text><text transform="translate(46.14 147.759)"><tspan x="0" y="0">1000101010101</tspan></text><text transform="translate(47.08 160.056)"><tspan x="0" y="0">011011001001</tspan></text><text transform="translate(52.456 172.353)"><tspan x="0" y="0">00111011100</tspan></text><text transform="translate(63.996 184.651)"><tspan x="0" y="0">1010001</tspan></text></g></g></svg>