<svg id="Layer_1" data-name="Layer 1" xmlns="http://www.w3.org/2000/svg" width="1024.264" height="685.554"><defs><style>.cls-2{fill:#7e8789}.cls-5,.cls-6{stroke:#000;stroke-linecap:round;stroke-miterlimit:10;fill:none}.cls-5{stroke-width:5px}.cls-6{stroke-width:3px}</style></defs><path d="M468.264 56.394h15v628h-15zM561.264 56.394h15v628h-15zM660.264 56.394h17v628h-17zM761.264 56.394h15v628h-15zM860.264 56.394h17v628h-17z"/><path d="M529 164v526h423V164zm85 503h-48v-48h48zm0-144h-48v-48h48zm0-144h-48v-48h48zm0-144h-48v-48h48zm100 432h-48v-48h48zm0-144h-48v-48h48zm0-144h-48v-48h48zm0-144h-48v-48h48zm100 432h-48v-48h48zm0-144h-48v-48h48zm0-144h-48v-48h48zm0-144h-48v-48h48zm100 432h-48v-48h48zm0-144h-48v-48h48zm0-144h-48v-48h48zm0-144h-48v-48h48z" transform="translate(-5.736 -4.606)" fill="#b3b3b3"/><path class="cls-2" d="M438.264 256.394h508v12h-508zM438.264 396.394h508v12h-508zM438.264 536.394h508v12h-508z"/><path fill="#999" d="M1024.264 667.394l-78 18v-526l75 31 3 477z"/><path transform="rotate(-180 187.06 674.157)" d="M30.998 662.759h317.86v27.4H30.998z"/><path transform="rotate(-180 187.06 647.54)" d="M84.654 636.142h210.548v27.4H84.654z"/><path transform="rotate(-180 187.06 620.139)" d="M138.989 608.741h101.878v27.4H138.989z"/><path stroke-width="22" stroke="#000" stroke-linecap="round" stroke-miterlimit="10" d="M459.264 116.408H11"/><path class="cls-5" d="M447.039 122.671v120.562M430.399 123.062v120.562M210.342 217.789h-55.694M210.342 265.544h-55.694M210.342 313.299h-55.694M210.342 361.054h-55.694M211.021 408.81h-55.693M210.342 457.347h-55.694M211.021 505.885h-55.693M210.342 553.64h-55.694M211.021 603.744l-53.656-47.755M154.648 603.744l54.335-47.755M154.648 552.858l52.977-44.624M154.648 505.103l55.694-47.756M156.686 455.782l52.977-44.624M156.686 407.244l52.977-44.624M156.007 360.272l52.976-44.624M156.007 312.517l52.976-44.624M156.007 263.979l52.976-44.624M210.342 552.858l-52.977-44.624M208.983 503.537l-52.976-44.624M208.983 455.782l-52.976-44.624M208.983 408.027l-52.976-44.624M209.663 360.272l-52.977-44.624M209.663 312.517l-52.977-44.624M210.342 265.544l-55.694-47.755"/><path class="cls-6" d="M164.687 97.227l35.467-29.875M201.512 98.01l-37.355-31.315M165.366 65.13l35.467-29.876M201.512 65.912l-37.056-31.706M165.366 32.249l35.467-29.875M164.157 1.654h37.511M164.157 34.535h37.511M164.157 66.632h37.511M201.93 98.793V1.956M163.895 98.793V1.956M201.852 33.423L164.836 1.717"/><path class="cls-5" d="M211.021 213.092v390.652M154.648 213.092v390.652"/><path d="M150.536 121.796v98.642h76.069v-98.642zm8.15 18.789h59.769v46.19h-59.769z" transform="translate(-5.736 -4.606)"/><path transform="rotate(-180 185.702 105.01)" d="M158.686 102.224h59.769v10.177h-59.769z"/><path class="cls-5" d="M200.833 2.5l235.679 107.253M7.264 116.799L163.478 2.5"/><path transform="rotate(-180 54.62 175.077)" d="M15.717 129.233h83.54v96.293h-83.54z"/><path d="M456.85 253.318c-.683 7.945-5.683 18.582-6.113 19.572-.68 1.566-1.358 3.132-3.396 3.132h-5.433c-1.359 0-4.755-5.48-6.113-9.395s-3.396-9.394-2.717-14.874 2.717-13.31 10.188-13.31c5.433 0 8.15 2.228 9.509 3.854a18.43 18.43 0 013.396 6.324 12.012 12.012 0 01.679 4.697z" transform="translate(-5.736 -4.606)"/><path d="M438.889 271.416v4.328s-11.886-.805-11.886 12.504c0 3.914 1.358 7.045 6.113 8.611 4.13 1.36 10.867-1.541 10.867-5.48" stroke-width="7" fill="none" stroke="#000" stroke-linecap="round" stroke-miterlimit="10"/></svg>