<svg xmlns="http://www.w3.org/2000/svg" width="185.894" height="211.49"><path d="M133.76 192.847l-83.3 18.209a18.612 18.612 0 0 1-22.158-14.208L.43 69.348a18.612 18.612 0 0 1 16.745-22.531l73.143-5.668a18.612 18.612 0 0 1 19.111 12.714l38.024 114.957a18.612 18.612 0 0 1-13.693 24.027z" fill="#05436f"/><path d="M152.159 172.851l-83.3 18.209a18.612 18.612 0 0 1-22.158-14.208l-27.872-127.5a18.612 18.612 0 0 1 16.745-22.531l73.143-5.668a18.612 18.612 0 0 1 19.111 12.714l38.024 114.957a18.612 18.612 0 0 1-13.693 24.027z" fill="#0b72b9"/><path d="M171.249 153.761l-83.3 16.2a18.612 18.612 0 0 1-22.158-14.208l-27.872-127.5A18.612 18.612 0 0 1 54.664 5.722L127.807.054a18.612 18.612 0 0 1 19.111 12.713l38.024 114.957c3.476 10.486-2.903 23.678-13.693 26.037z" fill="#7fc4fd"/></svg>