<svg id="Layer_1" data-name="Layer 1" xmlns="http://www.w3.org/2000/svg" width="1144.996" height="468.212"><defs><style>.cls-1{fill:#44b6e6}</style></defs><path class="cls-1" d="M29.777 425.678l2.722-.701a35.17 35.17 0 01-6.61 3.314 195.817 195.817 0 0010.713-3.651c1.802-.707 3.671-1.286 5.522-1.966q2.785-.995 5.588-2.069 2.802-1.071 5.61-2.212c1.87-.766 3.74-1.55 5.636-2.253a361.645 361.645 0 0011.246-4.565c1.859-.774 3.689-1.621 5.531-2.367l5.473-2.26a392.15 392.15 0 0010.534-4.622c6.836-2.955 13.214-5.8 18.774-8.587 8.516-2.157 15.753-5.343 16.153-7.222.38-1.866-6.3-1.652-14.997.505-1.96.286-4.21.828-5.66.971a230.41 230.41 0 00-45.636 9.122c3.35-.724 6.819-1.553 10.168-2.221-4.9 1.347-9.732 2.767-15.04 4.748.668.08 1.496.1 2.166.182-2.142.512-4.364 1.109-6.632 1.774-2.257.706-4.541 1.55-6.845 2.412-4.599 1.76-9.263 3.67-13.65 5.808-4.358 2.228-8.483 4.545-12.108 6.81-1.81 1.142-3.508 2.236-5.024 3.361a60.523 60.523 0 00-4.018 3.34c-4.67 4.278-5.482 6.886-3.106 7.678 1.188.396 3.173.34 5.876-.185 2.712-.506 6.098-1.587 10.256-2.86z" transform="translate(-4.992 -6.098)"/><path class="cls-1" d="M62.724 422.242l-3.654.94-3.588 1.053-7.128 2.069-7.09 2.038c-2.357.685-4.665 1.5-7.005 2.244l-1.99.296 1.697 2.098.102-.234a73 73 0 016.5-4.61c2.507-1.504 5.285-3.051 8.223-4.611 2.942-1.552 6.033-3.154 9.196-4.671a703.918 703.918 0 019.61-4.233l4.485-2.11c2.097-1.159 3.398-2.207 3.683-2.868.339-.763-.628-1.137-2.426-.951a35.578 35.578 0 00-7.536 1.863l-7.093 2.454-3.407 1.02-3.547 1.255a292.564 292.564 0 00-7.455 2.814c-2.536 1-5.11 2.04-7.652 3.142-2.513 1.183-5.003 2.402-7.414 3.636s-4.743 2.485-6.939 3.73a120.25 120.25 0 00-3.185 1.866q-1.509.99-2.89 1.963a42.417 42.417 0 00-8.333 7.219c-1.55 1.973.85 2.183 1.848 3.012.224 1.865 6.93-.027 15.01-3.989 8.193-3.744 14.653-8.228 14.51-10.092 1.434-.543 2.954-1.012 4.393-1.508l-3.08 1.988c1.727-2.38 9.185-5.921 14.544-9.064 2.76-1.38 5.606-2.504 8.413-3.756l-6.36-1.919c-1.445.715-2.852 1.547-4.273 2.332.405.015 1.155-.025 1.105.014l-24.305 13.944-5.384 3.363-2.683 1.685-2.632 1.792c-2.684 2.272-1.855 3.133 1.759 2.041l2.664-.89 2.702-.793-2.496.607c5.99-2.32 12.075-4.812 18.156-7.231 6.159-2.213 12.29-4.42 18.266-6.4a14.94 14.94 0 004.947-2.291c.688-.689-.282-.824-2.268-.257zM21.855 441.07a36.003 36.003 0 00-6.479 2.749l-.966.872 3.907-1.26c2.8-.9 3.95-1.934 3.538-2.362zM14.41 444.69l-1.634.526 1.18-.186.28-.183zM545.877 375.89q27.727 1.405 55.364 1.974 27.579.452 55.001-.336c1.223-.046 2.242-.282 2.29-.542.05-.223-.908-.403-2.036-.342q-27.4.773-54.885.31-27.54-.533-55.238-1.966a4.51 4.51 0 00-2.456.338c-.068.255.799.497 1.96.565zM821.471 377.23c-.796.425-.697.669.23.593a9.065 9.065 0 002.935-.845c.668-.358.556-.655-.236-.59a9.058 9.058 0 00-2.929.841z" transform="translate(-4.992 -6.098)"/><path class="cls-1" d="M818.657 398.323a251.97 251.97 0 00-14.227 4.99 10.502 10.502 0 01-2.464.513c.396.33-.525.905-2.382 1.484l-6.904 2.121c-2.316.698-4.64 1.425-6.997 2.022q-7.056 1.877-14.254 3.7c-4.801 1.177-9.66 2.186-14.542 3.264-4.88 1.108-9.809 2.004-14.759 2.913-9.896 1.915-19.908 3.373-29.946 4.88l-15.078 1.989c-5.029.65-10.056 1.152-15.078 1.742a3.755 3.755 0 01-1.642 1.063c-2.725 1.24-8.304 2.05-14.129 2.153l-4.4-.03c-17.732.204-35.38.204-52.896-.405a101.822 101.822 0 01-12.259.882c-7.561.572-15.153 1.17-22.766 1.582l-11.472.626-11.55.452c.966.301 1.546.651 1.527 1.017-.32.868-3.92 1.428-8.1 1.292l-6.307-.14 18.114 1.168c.872.037 1.677.112 2.409.208 6.631.216 13.374.262 20.21.309 59.778.053 116.82-5.448 172.182-17.287a10.648 10.648 0 013.178-.395c.574.119.52.42-.487.697-17.308 4.68-33.57 9.264-50.547 13l-6.405 1.441c-2.149.476-4.308.88-6.488 1.317a870.733 870.733 0 01-13.325 2.515c-9.048 1.454-18.515 2.934-28.555 3.92-47.876 5.07-95.018 6.69-143.138 7.11-50.206-1.896-96.09-2.09-145.669-.899-8.34.285-16.66.423-24.84.78l-12.257.462-12.14.578c-4.049.157-8.035.434-12.028.67-3.986.257-7.984.434-11.941.74-7.914.617-15.827 1.12-23.646 1.909-15.7 1.345-31.174 3.254-46.589 5.417-7.671 1.195-15.383 2.292-22.991 3.747l-5.734 1.022-2.87.51-2.844.59-11.401 2.354c-2.853.622-5.615 1.36-8.363 1.94a175.339 175.339 0 01-8.057 1.56c-2.635.409-5.135.882-7.542 1.244-2.407.363-4.71.644-6.877.84-2.163.205-4.206.291-6.054.353a43.375 43.375 0 01-4.987-.027c-2.952-.208-5.114-.8-6.214-1.81-1.298-1.237-.907-2.94.913-4.93a23.27 23.27 0 013.767-3.175 41.688 41.688 0 015.727-3.392c-1.896.46-3.73 1.003-5.582 1.536l-8.948 2.053c-4.269.898-8.19 1.783-11.717 2.33a52.04 52.04 0 01-9.148.73c-2.287-.01-4.51.147-6.782.215-2.363-.197-5.037-.233-7.853-.197-2.816.038-5.792.11-8.658.34-5.77.378-11.44.68-15.63.12l.831-2.104-1.762.236c-5.587 1.305-9.692 1.55-11.6.618l-.345-2.003c.122-2.536 1.82-5.667 5.212-9.458-.488-.687-.321-1.673.47-2.882-4.431-.144-7.056-1.22-5.124-4.7-2.442.511-2.44-.435-.007-2.126a18.11 18.11 0 013.024-1.685.095.095 0 00-.031.004 26.546 26.546 0 00-3.747.336l-3.606 1.368-11.251 4.56c-2.342.732-4.24 1.335-5.6 1.656-1.352.34-2.128.476-2.128.476-6.393-.609-6.425-.591-6.377-2.319.214-.28.463-.574.736-.87-4.1 1.58-4.393 1.689-5.51 2.098a17.416 17.416 0 01-2.12.454c-.559-.624-.559-.624-1.366-.532a.843.843 0 01-.46-.45c1.74-1.932 1.743-1.933 1.678-2.19a11.596 11.596 0 011.016-1.031l3.798-2.472 6.456-1.001.86-1.269 1.709.197-1.12-.414 3.008-.958-3.508.95c3.329-1.6 5.051-2.262 6.23-2.788 1.18-.518 1.844-.84 3.17-1.485a58.61 58.61 0 005.374-2.673.892.892 0 01-.445-.313c3.644-1.51 5.441-2.323 7.265-2.998l7.224-2.663a21.61 21.61 0 011.881-.165 12.139 12.139 0 013.296-1.738l3.757-1.422c.26-.157.511-.31.746-.45a.207.207 0 00-.035-.06l3.007-1.6.617-.343.042-.004 13.09-6.9c2.27-.721 4.423-1.258 6.453-1.784-.682.094-1.335.181-1.974.25-1.279.134-.456-.964-1.125-.814a347.595 347.595 0 00-50.707 17.47c-2.927 1.484-5.912 2.387-6.63 2.028-.673-.393 1.197-1.918 4.218-3.437 15.838-10.122 34.9-18.733 54.587-25.515l7.415-2.455 3.714-1.193c1.243-.372 2.494-.707 3.74-1.056a679.02 679.02 0 0114.905-3.94c9.928-2.183 19.666-4.232 29.039-5.44 9.731-1.975 19.548-3.481 29.361-5.144l-1.47-.108c2.568-.309 5.136-.514 7.694-.771l.825-.116-6-.394c-1.35.073-2.695.219-4.06.361-5.696 1.005-11.284 1.879-16.812 2.696-5.513.962-10.969 1.85-16.416 2.714-2.729.396-5.433.944-8.149 1.442l-8.158 1.525c-5.466.952-10.914 2.247-16.454 3.54-2.976.7-5.864 1.33-8.699 1.933l-8.334 1.975c-5.5 1.296-10.973 2.423-16.59 4.108-2.841.995-4.97 1.262-4.846.592.13-.643 2.621-2.014 5.405-2.997 4.513-1.927 9.208-3.496 13.927-5.195 4.728-1.665 9.505-3.367 14.36-4.752 4.845-1.44 9.707-2.89 14.569-4.204a763.62 763.62 0 0114.557-3.465c19.29-4.13 37.849-6.593 53.259-6.694 3.423-.574 6.797-1.075 10.014-1.39 3.22-.266 6.28-.4 9.074-.37l.309-.028-4.386-.551c5.16-.466 8.025.098 12.739-.178-.608-.457-1.335-.89-1.945-1.349 25.36-2.546 52.619-5.414 75.99-4.306.94-.023 1.814-.018 2.69-.014 9.927-1.58 20.035-3.16 31.846-3.546l-11.94-.204c4.288-.478 8.554-.864 12.906-1.174q3.263-.229 6.597-.382c2.221-.075 4.47-.113 6.764-.121 24.872-.213 52.418 2.739 65.233 7.293 47.446.599 94.43 2.627 140.735 3.054 2.392.004 4.525.414 4.936.904.231.48-1.36.894-3.753.888-33.24.642-67.248-.05-101.517-.523 28.599 1.86 57.152 3.918 86.15 5.113l11.137.17c3.678.042 7.316.288 10.944.596 36.937 1.077 71.801 1.756 108.866-.855 3.965-.232 7.838-.614 11.676-.926 3.833-.34 7.628-.623 11.372-1.005l11.137-1.186 5.522-.598 5.484-.71 10.964-1.43c3.655-.51 7.3-1.114 10.984-1.676 7.38-1.07 14.785-2.495 22.428-3.886 21.411-4.139 41.503-9.07 61.138-14.7 19.627-5.66 38.828-11.953 58.35-19.345 5.106-2.158 10.18-3.285 11.26-2.38 1.088.878-2.25 3.432-7.407 5.671-40.35 17.503-83.332 29.607-128.088 37.206-44.785 7.603-91.305 10.712-139.52 10.239l-15.518-.218-15.375-.373a.891.891 0 01.245.501c-.014.668-.997 1.272-2.644 1.757l35.03 1.212c16.282-.722 32.531-1.537 48.962-2.611 8.23-.432 16.48-1.099 24.85-1.55l12.597-.849 6.365-.374 6.394-.455c23.517-1.51 44.8-2.752 66.461-5.12a606 606 0 0079.27-21.93 5.806 5.806 0 012.592-.538c.45.107-.038.513-1.069.931a423.404 423.404 0 01-55.212 18.687c3.21.086 5.25.659 5.243 1.773.005 1.152-2.157 2.65-5.657 4.136l6.648-1.403c2.212-.481 4.442-.9 6.633-1.46 2.722-.636 4.963-.744 5.019-.185.086.606-1.977 1.567-4.573 2.197q-27.113 6.175-54.64 10.174c-21.931 3.857-44.025 6.642-66.347 8.6 3.149.529 5.5 1.281 6.665 2.236a.036.036 0 01.007.018c3.473-.234 6.92-.585 10.358-.923l11.807-1.625 11.798-1.842 5.907-.911c1.968-.311 3.928-.685 5.894-1.022l11.798-2.055c15.69-3.01 31.414-6.111 46.979-10.025a653.112 653.112 0 0091.916-29.335c1.171-.478 2.22-.677 2.346-.441.124.232-.702.794-1.769 1.2l-13.623 5.364c-4.558 1.733-9.18 3.3-13.753 4.975-4.558 1.725-9.221 3.146-13.845 4.67l-6.938 2.276c-2.309.767-4.664 1.39-6.991 2.097l.08-.01c.799-.064 1.021.175.244.589a9.891 9.891 0 01-2.936.848c-.918.073-.913-.224-.253-.581-8.658 2.696-17.455 4.88-26.182 7.273-8.809 2.076-17.558 4.368-26.406 6.174-8.802 2.02-17.672 3.64-26.502 5.397l-13.285 2.334c-2.214.381-4.422.798-6.637 1.154l-6.649 1.028c8.28-.892 16.498-2.206 24.742-3.318 4.11-.631 8.206-1.34 12.31-1.999l6.154-1c2.047-.353 4.083-.762 6.126-1.139l12.249-2.283 12.181-2.58 6.093-1.277 6.051-1.447 12.11-2.863 10.218-3.894a6.663 6.663 0 012.696-.418c.328.128-.302.58-1.274.917l-2.863 1.061a40.9 40.9 0 017.836-1.388c2.037-.117 3.334.058 3.484.725.03.69-1.148 1.777-3.175 2.769a45.16 45.16 0 01-8.015 2.95c-8.41 2.65-16.974 4.69-25.478 6.93l-12.861 2.9c-2.147.468-4.284.981-6.439 1.408l-6.472 1.242-5.561 1.286-5.528 1.679a637.176 637.176 0 0080.073-17.377c2.223-.723 4.244-.965 4.438-.526.201.432-1.484 1.399-3.725 2.127-45.394 16.394-93.704 26.208-142.426 31.495l-11.917 2.595-12.005 2.382-6.04 1.186-6.069 1.082-12.232 2.159 6.283-.255a508.685 508.685 0 0075.506-9.671c24.144-4.815 47.783-10.781 72.791-17.496a4.41 4.41 0 012.563-.242c.193.197-.603.645-1.882.966-24.393 6.768-46.81 12.864-71.574 17.62-20.512 3.902-40.16 6.897-59.389 9.631 19.748-1.487 39.042-4.202 58.16-7.547l7.165-1.286c2.387-.426 4.773-.848 7.15-1.36l14.283-2.922c4.757-1.022 9.505-2.164 14.273-3.224 2.38-.56 4.777-1.027 7.153-1.652l7.153-1.786a17.28 17.28 0 014.5-.714c.062-.149.377-.344.874-.532l7.277-2.565c2.505-.88 5.083-1.745 7.692-2.598a6.948 6.948 0 012.9-.46c.58.069.02.454-1.079.873zm-680.77 10.035l-1.036-.05c1.08-.1 2.238-.205 3.52-.322l5.185.782zM81.59 432.732l.032-.012-2.982-.032 2.95.044zm380.616-53.145c-20.506-.836-40.839-2.08-61.244-3.809l14.951.1q23.146 1.616 46.293 3.71zM96.067 412.48a106.61 106.61 0 0114.523-.692c1.727-.637 3.5-1.265 5.315-1.842a154.247 154.247 0 015.567-1.51l7.54-1.875c2.502-.6 4.978-1.258 7.473-1.74q7.466-1.55 14.801-2.98c-1.408-.366.936-.854 2.114-1.177l3.638-.908-3.947.614-3.94.712-7.906 1.442-7.956 1.457-7.983 1.681c-9.671 1.897-20 4.83-29.239 6.818zm-68.79 30.478l-.945.17 1.373-1.778s-.2.685-.429 1.608zm-2.073 2.958l1.428-.58a1.178 1.178 0 01-1.428.58zm13.281-4.91a12.904 12.904 0 00-2.036.352zm21.19 23.394l2.73-6.712-3.24 6.708z" transform="translate(-4.992 -6.098)"/><path d="M819.9 260.2c-39.1 0-70.7 31-70.7 69.3 0 30.3-27.3 46.2-47.2 46.2 21.7 28.3 58.7 46.3 94.3 46.3 52.1 0 94.3-41.4 94.3-92.4 0-38.4-31.6-69.4-70.7-69.4z" transform="translate(-4.992 -6.098)"/><path d="M1143.1 43.7L1112 13c-9.2-9-24.5-9.3-33.7-.3L867 219.8l64.8 63.5 211.2-207a22.618 22.618 0 00.1-32.6z" transform="translate(-4.992 -6.098)" fill="#d08f33"/></svg>