<svg xmlns="http://www.w3.org/2000/svg" width="19.365" height="13.407"><path d="M19.207 1.906L14.2 6.893a.087.087 0 0 0 0 .127l3.505 3.65a.581.581 0 0 1 0 .837.617.617 0 0 1-.857 0l-3.491-3.636a.1.1 0 0 0-.135 0l-.852.847a3.791 3.791 0 0 1-2.672 1.1A3.866 3.866 0 0 1 6.97 8.685l-.819-.815a.1.1 0 0 0-.135 0l-3.491 3.636a.617.617 0 0 1-.857 0 .581.581 0 0 1 0-.837l3.505-3.65a.1.1 0 0 0 0-.127L.159 1.904a.092.092 0 0 0-.158.064v9.981a1.478 1.478 0 0 0 1.49 1.456h16.385a1.478 1.478 0 0 0 1.49-1.456V1.968a.093.093 0 0 0-.159-.062z" fill="#0b72b9"/><path d="M9.683 9.912a2.337 2.337 0 0 0 1.8-.888L18.714.379A1.322 1.322 0 0 0 17.802 0H1.567a1.314 1.314 0 0 0-.912.379l7.231 8.645a2.339 2.339 0 0 0 1.797.888z" fill="#0b72b9"/></svg>