<?xml version="1.0" encoding="utf-8"?>
<!-- Generator: Adobe Illustrator 23.0.4, SVG Export Plug-In . SVG Version: 6.00 Build 0)  -->
<svg version="1.1" id="Layer_1" xmlns="http://www.w3.org/2000/svg" xmlns:xlink="http://www.w3.org/1999/xlink" x="0px" y="0px"
	 viewBox="0 0 384 383" style="enable-background:new 0 0 384 383;" xml:space="preserve">
<style type="text/css">
	.st0{fill:#FFFFFF;}
</style>
<path class="st0" d="M362.8-1H21.2C9.5-1,0,8.5,0,20.2v341.6C0,373.5,9.5,383,21.2,383H192V231h-45.9v-56H192v-41.4
	C192,84,226.4,57,270.7,57c21.2,0,44,1.6,49.3,2.3v51.8h-35.3c-24.1,0-28.7,11.4-28.7,28.2V175h57.4l-7.5,56H256v152h106.8
	c11.7,0,21.2-9.5,21.2-21.2V20.2C384,8.5,374.5-1,362.8-1z"/>
</svg>
