<svg xmlns="http://www.w3.org/2000/svg" width="532.301" height="351.246"><path d="M527.4 351.247l-258.337-4.069-7.331-8.182-7.555 7.947L0 342.931l60.837-220.153 433.3 7z"/><path d="M268.953 338.116l249.258 4.814-17.726-15.756-53.834-39.391-228.906-3.939z" fill="#b5b5b5"/><path d="M254.511 337.897H8.535l14.443-10.942 53.835-39.391 228.906-3.939z" fill="#b5b5b5"/><path d="M197.393 96.955c-26.788 0-80.1 10.942-93.663 13.568s-22.322 3.939-22.322 3.939L22.759 327.174s62.588-10.5 78.782-11.817 99.791-10.5 130.428 1.313 29.325 14.006 29.325 14.006 26.261-19.7 71.779-19.258 170.257 21.446 170.257 21.446l-29.761-210.086S365.9 100.019 332.636 100.894s-41.142 8.316-44.643 9.629-11.38 7.878-11.38 7.878-16.632-15.319-37.64-18.383-18.383-3.063-41.58-3.063z" fill="#f4f4f4"/><path d="M22.979 327.123L8.754 338.116 66.09 127.155l15.538-12.744zM488.012 130.656l-15.22-7.933 29.762 210.086 16.1 10.122z" fill="#cacaca"/><path fill="none" stroke="#999" stroke-linecap="round" stroke-miterlimit="10" d="M261.513 330.457l15.1-212.056"/><path d="M238.973 303.54c5.69-22.322 15.756-49.458 16.632-51.646s4.377-10.5 4.377-10.5-7.878 0-10.5-.438-5.69-1.313-5.69-1.313 6.128-.438 8.754-.875a14.306 14.306 0 0 0 3.5-.875s-5.69-.875-9.629-3.939-8.754-9.629-9.629-12.693-.875-2.188-.875-2.188 6.127 7.441 12.693 9.191l6.565 1.751s-8.754-9.629-11.38-16.194-4.382-16.201-4.382-18.826v-3.5s7 11.817 15.319 19.258 7 7 7 7-7.878-12.693-9.191-18.82a48.349 48.349 0 0 1-1.313-8.754s7 11.38 8.316 12.693 6.565 7 6.565 7l-2.188-12.693s-6.128-18.82-8.754-21.446 4.377 1.751 6.128 3.939 5.252 5.252 6.565 7.441 3.5 5.69 3.5 5.69-1.313-9.629-1.313-14.443.438-10.942.438-10.942 2.188 7.441 2.626 8.316 1.313 3.064 1.313 3.064a113.437 113.437 0 0 1 1.313-16.194c1.313-7.878 4.815-18.82 7-23.2s7.878-13.568 9.629-15.319.875-1.313.875-1.313l-2.626 11.38s6.565-13.568 15.756-22.759 21.446-17.507 24.948-18.82 1.313-.438 1.313-.438-10.5 11.817-14.006 23.635-3.939 14.443-3.939 14.443 9.191-22.759 20.133-33.7 19.258-16.632 41.142-23.2 42.892-8.754 58.211-14.443 18.82-8.754 18.82-8.754l-3.939 11.38 8.759-11.376s14.006-4.377 21.446-7.441 11.38-4.814 14.881-7a35.283 35.283 0 0 0 3.939-2.626 48.4 48.4 0 0 0-1.751 5.69l-1.313 6.565s3.939-6.565 4.814-8.754a10.52 10.52 0 0 0 .875-3.5s12.693-3.939 19.258-11.38 12.255-14.443 12.255-20.571.875 14.881-3.064 23.635-5.252 15.756-12.255 25.385-15.756 20.133-22.322 24.948-17.07 12.255-19.258 12.693-3.064-.875-9.191-1.313-11.817-.438-11.817-.438l11.38 3.939s-31.951 14.006-39.391 20.571-18.383 15.756-21.446 21.009-3.064 5.69-3.5 7a18.39 18.39 0 0 1-.875 2.188s-14.443 3.5-17.069 4.377-10.067 3.5-10.067 3.5l25.385-2.626s-6.127 3.939-9.629 5.69-8.754 4.377-10.067 4.814l-2.626.875s12.693-1.751 14.443-2.188l1.751-.438a93.463 93.463 0 0 1-4.377 10.5 76.526 76.526 0 0 1-15.319 20.571c-9.629 9.191-21.009 16.632-31.951 19.258a162.329 162.329 0 0 1-21.884 3.5s12.255.875 17.507 0 10.942-1.751 12.693-2.626a26.029 26.029 0 0 1 3.064-1.313s-12.693 7.441-18.82 10.5-21.009 10.067-28.449 10.942-10.067 1.313-10.067 1.313a67.846 67.846 0 0 0 16.194-1.313 121.207 121.207 0 0 0 16.632-4.814c3.064-1.313 5.252-2.188 5.252-2.188a77.6 77.6 0 0 1-11.817 6.565c-6.127 2.626-13.568 5.69-19.258 6.565a64.388 64.388 0 0 1-8.754.875 30.74 30.74 0 0 0 8.316 2.188c4.377.438 9.629.875 9.629.875s-7.44 2.188-11.38 2.188a58.558 58.558 0 0 1-8.754-.875 75.874 75.874 0 0 0 7.878 5.69c4.815 3.064 7.441 4.377 7.441 4.377s-7.878-.438-10.5-1.313-6.127-2.626-7-3.5l-1.751-1.751s5.252 8.754 7 11.38.875 1.751.875 1.751a54.517 54.517 0 0 1-7.441-5.69 30.589 30.589 0 0 1-4.377-5.69s1.751 4.814 1.313 7.878-.438 6.128-1.313 8.316l-.875 2.188s-1.751-8.316-2.626-10.5-2.188-6.128-3.064-7.441l-.875-1.313s-7 15.756-7.878 20.571-1.751 7-1.751 9.191v4.814s-6.351 7.6-10.942 13.568c-4.377 5.69-17.069 21.446-17.069 21.446z" fill="#333"/><path d="M259.543 269.838c4.815-10.5 9.629-22.322 12.255-27.574s17.945-31.513 21.884-37.2 21.446-31.951 29.762-41.579 28.887-32.826 37.64-39.829 29.762-24.51 44.643-31.951 27.136-13.568 37.2-17.507 34.139-14.881 41.142-18.383a102.5 102.5 0 0 0 9.633-5.254s-18.82 7.441-22.322 8.754-23.635 9.629-26.261 10.5-22.322 8.316-36.327 16.194-41.58 24.948-52.959 34.577-28.011 26.261-31.075 30.2-24.51 30.638-30.638 40.267-18.82 29.765-21.888 35.455-15.752 31.075-17.5 35.453-8.316 21.009-3.064 17.945 7.875-10.068 7.875-10.068z" fill="#dedfe1"/></svg>