<svg xmlns="http://www.w3.org/2000/svg" width="975" height="527"><defs><style>.cls-1{fill:#fff}.cls-2{fill:#f2f2f2}.cls-3{fill:none;stroke:#ccc;stroke-miterlimit:10}.cls-5{fill:#ccc}</style></defs><g id="Dominos"><path class="cls-1" d="M898 483l3-447L794 7v409l104 67z"/><path class="cls-2" d="M975 477V31l-74 5-3 447 77-6z"/><path class="cls-3" d="M825.02 244.332l71.524 15.405"/><path d="M833.216 375.22c-.355-8.027-3.376-16.118-6.687-15.972s-5.656 8.475-5.301 16.502 2.705 18.307 6.015 18.16 6.328-10.664 5.973-18.69z" transform="translate(-6 -6)"/><path fill="#e6e6e6" d="M975 31L866 0l-72 7 107 29 74-5z"/><path class="cls-1" d="M727 478l98-463-98-15-88 428 88 50z"/><path class="cls-2" d="M805 486l92.928-449.849L825 15l-98 463 78 8z"/><path class="cls-3" d="M697.5 243.5l72 13"/><path d="M747.916 299.223c1.471-7.899.36-16.463-2.898-17.07s-7.428 6.975-8.899 14.874-1.508 18.444 1.75 19.051 8.577-8.956 10.047-16.855zM679.902 385.761c.867-7.988-.89-16.443-4.185-16.801s-6.878 7.517-7.745 15.505-.106 18.506 3.189 18.864 7.873-9.58 8.74-17.568zM794.916 80.223c1.471-7.899-.23-16.573-4.222-17.316s-8.764 6.726-10.234 14.625-1.089 18.522 2.903 19.266 10.083-8.676 11.553-16.575zM768.916 201.223c1.471-7.899.36-16.463-2.898-17.07s-7.428 6.975-8.899 14.874-1.508 18.444 1.75 19.051 8.577-8.956 10.047-16.855zM745.916 65.223c1.471-7.899-.23-16.573-4.222-17.316s-8.764 6.726-10.234 14.625-1.089 18.522 2.903 19.266 10.083-8.676 11.553-16.575zM719.916 186.223c1.471-7.899.36-16.463-2.898-17.07s-7.428 6.975-8.899 14.874-1.508 18.444 1.75 19.051 8.577-8.956 10.047-16.855z" transform="translate(-6 -6)"/><path class="cls-1" d="M495 466L740 55l-81-29-239 390 75 50z"/><path class="cls-2" d="M571 508L816 98l-76-43-245 411 76 42z"/><path d="M595.128 206.446c4.326-6.77 6.508-15.127 3.716-16.91s-9.502 3.678-13.828 10.45-8.316 16.532-5.524 18.316 11.31-5.085 15.636-11.856zM526.555 357.941c4.326-6.77 6.508-15.127 3.715-16.911s-9.502 3.68-13.828 10.45-8.316 16.533-5.523 18.317 11.31-5.085 15.636-11.856zM699.457 111.507c4.326-6.77 6.508-15.127 3.716-16.911s-9.502 3.68-13.828 10.45-8.316 16.533-5.524 18.317 11.31-5.085 15.636-11.856zM476.123 388.065c4.326-6.77 6.508-15.127 3.716-16.91s-9.502 3.679-13.828 10.45-8.316 16.532-5.523 18.316 11.31-5.085 15.635-11.856zM518.217 410.281c4.326-6.77 6.508-15.127 3.715-16.911s-9.501 3.68-13.827 10.45-8.316 16.533-5.524 18.317 11.31-5.085 15.636-11.856zM578.453 311.126c4.326-6.77 6.507-15.127 3.715-16.91s-9.502 3.679-13.828 10.45-8.316 16.532-5.523 18.316 11.31-5.085 15.636-11.856zM532.516 307.687c4.326-6.77 6.508-15.127 3.715-16.911s-9.501 3.68-13.827 10.45-8.316 16.533-5.524 18.317 11.31-5.085 15.636-11.856z" transform="translate(-6 -6)"/><path class="cls-3" d="M529.501 254.702l82.657 10.76"/><path class="cls-1" d="M268 450l350-328-85-29-338.03 312.966L268 450z"/><path class="cls-2" d="M322 514l351.5-325.5-56.343-66.772L268 450l54 64z"/><path class="cls-5" d="M322 514l-54-64-73-44 58 54 69 54z"/><path d="M438.055 226.087c6.025-5.315 10.427-12.745 8.235-15.23s-10.148.916-16.174 6.231-12.552 13.598-10.36 16.083 12.273-1.768 18.299-7.084zM330.363 352.797c6.025-5.315 10.427-12.745 8.235-15.23s-10.148.916-16.174 6.231-12.553 13.598-10.36 16.083 12.273-1.769 18.299-7.084zM497.117 197.862c6.025-5.316 10.427-12.746 8.235-15.231s-10.148.916-16.174 6.232-12.552 13.598-10.36 16.083 12.273-1.77 18.299-7.084zM564.52 163.6c6.025-5.315 10.427-12.745 8.235-15.23s-10.148.916-16.174 6.232-12.552 13.598-10.36 16.083 12.273-1.77 18.299-7.084z" transform="translate(-6 -6)"/><path class="cls-3" d="M359.777 255.795l76.485 33.138"/><path class="cls-1" d="M69 457l385-284-81-39L0 405l69 52z"/><path class="cls-2" d="M113 527l388.5-281.5-48-73-385 284L113 527z"/><path class="cls-5" d="M113 527l-44-70-69-52 46.5 70.5L113 527z"/><path d="M264.012 254.143c6.615-4.56 11.869-11.415 9.988-14.143s-10.185-.297-16.8 4.264S243.12 256.272 245 259s12.397-.296 19.012-4.857zM142.012 367.143c6.615-4.56 11.869-11.415 9.988-14.143s-10.185-.297-16.8 4.264S121.12 369.272 123 372s12.397-.296 19.012-4.857zM303.012 275.143c6.615-4.56 11.869-11.415 9.988-14.143s-10.185-.297-16.8 4.264S282.12 277.272 284 280s12.397-.296 19.012-4.857zM397.012 207.143c6.615-4.56 11.869-11.415 9.988-14.143s-10.185-.297-16.8 4.264S376.12 209.272 378 212s12.397-.296 19.012-4.857zM356.012 186.143c6.615-4.56 11.869-11.415 9.988-14.143s-10.185-.297-16.8 4.264S335.12 188.272 337 191s12.397-.296 19.012-4.857z" transform="translate(-6 -6)"/><path class="cls-3" d="M182 275l72 42"/></g></svg>