<svg id="Layer_1" data-name="Layer 1" xmlns="http://www.w3.org/2000/svg" width="155.079" height="833.034"><defs><style>.cls-1{fill:#fff}.cls-2{fill:#434444}.cls-3{fill:#333}.cls-4,.cls-5{fill:#1a1a1a}.cls-4{opacity:.4}.cls-6{fill:#4d5458}</style></defs><path class="cls-1" d="M61.119 262.891v67.92c0 11.186.799 122.254.799 130.245v137.436c0 3.196-.8 128.647-.8 132.643s-.798 60.727-.798 66.32.587 29.06 1.598 29.566c3.196 1.598 32.76 2.397 38.354.799s6.393-15.981 5.594-34.36c-.751-12.015-2.398-97.484-1.599-192.57.897-106.683 0-219.914 0-230.926 0-10.564.898-51.927.8-99.083-.095-45.582-1.192-97.132-.8-99.88.8-5.594 9.589-7.991 9.589-19.178 0-15.981.8-67.12 0-82.302s-7.99-46.345-23.972-57.532S53.94 38.817 53.128 61.53c-.799 22.374-1.598 70.317-1.598 79.905 0 23.972 5.736 21.062 8.79 27.168 1.598 3.196.799 94.288.799 94.288z" transform="translate(-5.921 -9.974)"/><path class="cls-1" d="M10.778 369.964V811.04c0 10.387 11.986 11.986 20.776 11.986s23.172 2.397 23.172-36.757-.799-222.136-.799-237.318V369.964c0-4.795 3.196-34.36-2.397-47.943s-13.584-23.972-19.177-23.972-15.182 10.388-18.378 21.575a91.691 91.691 0 00-3.996 27.966c0 10.388.8 22.374.8 22.374zM112.258 369.165V810.24c0 10.387 11.986 11.985 20.775 11.985s23.173 2.398 23.173-36.756-.8-222.136-.8-237.318V369.165c0-4.795 3.197-34.36-2.396-47.943s-13.584-23.972-19.178-23.972-15.182 10.388-18.378 21.575a91.691 91.691 0 00-3.995 27.966c0 10.388.799 22.374.799 22.374z" transform="translate(-5.921 -9.974)"/><path class="cls-2" d="M29.157 346.791h7.191s.8 7.99 0 7.99-2.397 3.996-2.397 7.192-.799 2.397-.799 4.795v47.144c0 2.397.799 3.995.799 7.99v20.775c0 1.598-.799 1.598-.799 5.594v326.012c0 3.197.278 34.95.278 34.95l2.12 2.606-3.197 1.598-4.273-1.748s3.474.15 3.474-2.247v-46.345c0-3.197-.8-74.312-.8-78.307V369.964c0-3.996.8-11.187 0-11.986s-1.597-3.196-1.597-7.192zM79.497 345.193h7.191s.8 7.99 0 7.99-2.397 3.996-2.397 7.192-.799 2.397-.799 4.794v47.144c0 2.398.8 3.996.8 7.99v20.776c0 1.598-.8 1.598-.8 5.594v326.012c0 3.196.278 34.95.278 34.95l2.12 2.606-3.197 1.598-4.273-1.748s3.474.15 3.474-2.247v-46.345c0-3.197-.799-74.312-.799-78.307V368.366c0-3.996.8-11.187 0-11.986s-1.598-3.196-1.598-7.192zM129.837 346.791h7.191v11.986c0 3.196 0 4.794 3.197 4.794s3.196 2.397 3.196 5.594v10.387s.799 3.197-3.196 3.197-3.197 2.397-3.197 5.593v9.588c0 4.795-1.598 2.398-1.598 12.785v185.38c0 2.397.8 28.766.8 31.962s-1.599 5.593 4.794 5.593 5.593 0 5.593 11.986-.799 7.99-5.593 8.79-3.197 0-3.197 7.191V676c0 3.196-1.598 0-1.598 9.589v123.853l-1.598 3.196-2.397-1.598s-1.598-39.154-1.598-45.546V751.91c0-3.995.799-4.794-1.598-7.191s-1.598-4.795-1.598-7.192 0-5.593 2.397-6.392.799-11.187.799-15.182v-10.388c0-2.397 0-3.196-2.397-5.593s-1.598-10.388.799-11.187 1.598-3.196 1.598-9.589V394.734c0-3.196-.8-23.971-.8-26.368z" transform="translate(-5.921 -9.974)"/><path class="cls-3" d="M35.55 793.46c0 .8-1.057 10.335-1.599 13.584-.8 4.795-1.598 3.197-3.196-5.593-1.327-7.295-2.998-19.75-4.527-32.53-.093-.781 2.222-1.846 2.13-2.628-.102-.86-2.61-1.439-2.71-2.298a1321.068 1321.068 0 01-2.483-23.07c-.089-.909 2.876-1.745 2.795-2.599-.086-.92-2.889-1.952-3.294-2.701-.7-1.294-1.37-8.522-1.5-10.084-.799-9.588-.799-19.177-1.598-20.775s-2.397-5.593-4.794 0c-1.408 3.284-3.196 7.191-3.196 7.99s-.8 5.594-.8 7.192v21.574c0 2.397-.798 19.178-.798 23.972s-.8 15.98-.8 19.177-.798 15.182-.798 16.78-.8 10.388-.8 11.187c0 5.593 1.599 6.392-.799 9.588s.8 3.996 2.398 3.996 2.397 2.397 2.397 3.196H51.53c1.598 0 5.593 0 5.593-9.589s-.799-30.364-.799-35.957-2.397-52.737-2.397-59.13 0-11.986-2.397-16.78a27.253 27.253 0 01-1.291-2.96c-.438-1.213-.388-2.074-1.106-2.633a2.335 2.335 0 00-1.632-.456c-2.328.357-2.28 5.905-2.363 6.848-.948 10.696-1.75 19.212-2.397 26.369-.089.978-3.913 2.28-3.996 3.196-.073.809 3.266 1.636 3.196 2.397-1.354 14.877-2.288 21.735-2.397 23.173-.056.742-3.111 1.374-3.196 2.397-.062.75 2.474 1.528 2.397 2.397" transform="translate(-5.921 -9.974)"/><path class="cls-4" d="M12.377 776.68c-2.398.8-2.398 9.59-3.197 19.977s-.799 20.586-.799 22.373c0 1.598-2.907 4.572-2.397 5.594.8 1.598 3.883 1.486 4.795 2.397.799.799.484 2.397.799 2.397h36.756c3.995 0 8.79 1.598 8.79-11.187s-2.398-34.359-3.197-37.555-4.794-1.598-5.593 0-6.393 20.775-8.79 26.368-2.397 7.192-3.995 9.59-3.196 7.19-4.794 2.396-11.986-31.962-13.584-35.158-2.481-7.963-4.794-7.191z" transform="translate(-5.921 -9.974)"/><path class="cls-5" d="M16.372 802.25c-2.397 0-5.594 0-5.594 3.995 0 0-.799 6.393-.799 8.79s-.799 3.196 3.996 3.196H25.16a1.641 1.641 0 001.598-2.397 104.847 104.847 0 00-3.995-10.388c-.799-1.598 0-3.196-3.196-3.196zM49.246 802.25c2.397 0 5.593 0 5.593 3.995 0 0 .8 6.393.8 8.79s.798 3.196-3.996 3.196H40.456a1.641 1.641 0 01-1.598-2.397 104.85 104.85 0 013.996-10.388c.799-1.598 0-3.196 3.196-3.196z" transform="translate(-5.921 -9.974)"/><path class="cls-3" d="M131.372 793.46c0 .8 1.057 10.335 1.598 13.584.8 4.795 1.598 3.197 3.197-5.593 1.326-7.295 2.998-19.75 4.526-32.53.094-.781-2.222-1.846-2.13-2.628.102-.86 2.61-1.439 2.71-2.298.957-8.245 1.829-16.368 2.483-23.07.09-.909-2.876-1.745-2.795-2.599.087-.92 2.89-1.952 3.294-2.701.701-1.294 1.37-8.522 1.5-10.084.8-9.588.8-19.177 1.598-20.775s2.397-5.593 4.794 0c1.408 3.284 3.197 7.191 3.197 7.99s.799 5.594.799 7.192v21.574c0 2.397.799 19.178.799 23.972s.799 15.98.799 19.177.799 15.182.799 16.78.799 10.388.799 11.187c0 5.593-1.598 6.392.799 9.588s-.8 3.996-2.397 3.996-2.398 2.397-2.398 3.196h-39.952c-1.598 0-5.593 0-5.593-9.589s.799-30.364.799-35.957 2.397-52.737 2.397-59.13 0-11.986 2.397-16.78a27.25 27.25 0 001.291-2.96c.439-1.213.389-2.074 1.106-2.633a2.335 2.335 0 011.632-.456c2.329.357 2.28 5.905 2.364 6.848.947 10.696 1.75 19.212 2.397 26.369.088.978 3.912 2.28 3.995 3.196.073.809-3.266 1.636-3.196 2.397 1.354 14.877 2.288 21.735 2.397 23.173.056.742 3.112 1.374 3.196 2.397.062.75-2.474 1.528-2.397 2.397" transform="translate(-5.921 -9.974)"/><path class="cls-4" d="M154.545 776.68c2.397.8 2.397 9.59 3.196 19.977s.799 20.586.799 22.373c0 1.598 2.908 4.572 2.397 5.594-.799 1.598-3.883 1.486-4.794 2.397-.8.799-.485 2.397-.8 2.397h-36.756c-3.995 0-8.79 1.598-8.79-11.187s2.398-34.359 3.197-37.555 4.794-1.598 5.593 0 6.393 20.775 8.79 26.368 2.397 7.192 3.995 9.59 3.196 7.19 4.795 2.396 11.985-31.962 13.583-35.158 2.481-7.963 4.795-7.191z" transform="translate(-5.921 -9.974)"/><path class="cls-5" d="M150.55 802.25c2.397 0 5.593 0 5.593 3.995 0 0 .799 6.393.799 8.79s.799 3.196-3.995 3.196H141.76a1.641 1.641 0 01-1.598-2.397 104.85 104.85 0 013.995-10.388c.8-1.598 0-3.196 3.196-3.196zM117.675 802.25c-2.397 0-5.593 0-5.593 3.995 0 0-.8 6.393-.8 8.79s-.798 3.196 3.996 3.196h11.187a1.641 1.641 0 001.598-2.397 104.847 104.847 0 00-3.995-10.388c-.8-1.598 0-3.196-3.197-3.196z" transform="translate(-5.921 -9.974)"/><path class="cls-3" d="M85.89 793.46c0 .8-1.057 10.335-1.599 13.584-.799 4.795-1.598 3.197-3.196-5.593-1.326-7.295-2.998-19.75-4.527-32.53-.093-.781 2.222-1.846 2.13-2.628-.102-.86-2.61-1.439-2.71-2.298a1321.068 1321.068 0 01-2.483-23.07c-.089-.909 2.876-1.745 2.796-2.599-.087-.92-2.89-1.952-3.295-2.701-.7-1.294-1.37-8.522-1.5-10.084-.799-9.588-.799-19.177-1.598-20.775s-2.397-5.593-4.794 0c-1.408 3.284-3.196 7.191-3.196 7.99s-.8 5.594-.8 7.192v21.574c0 2.397-.798 19.178-.798 23.972s-.8 15.98-.8 19.177-.798 15.182-.798 16.78-.8 10.388-.8 11.187c0 5.593.016 6.47.8 10.387.799 3.996 1.598 4.795 1.598 4.795.799 1.598 1.598.799 1.598 1.598h39.952c1.598 0 5.594 0 5.594-9.589s-.8-30.364-.8-35.957-2.397-52.737-2.397-59.13 0-11.986-2.397-16.78a27.255 27.255 0 01-1.29-2.96c-.44-1.213-.389-2.074-1.107-2.633a2.335 2.335 0 00-1.632-.456c-2.328.357-2.28 5.905-2.363 6.848-.947 10.696-1.75 19.212-2.397 26.369-.089.978-3.912 2.28-3.995 3.196-.074.809 3.265 1.636 3.196 2.397-1.354 14.877-2.288 21.735-2.397 23.173-.057.742-3.112 1.374-3.197 2.397-.062.75 2.474 1.528 2.397 2.397" transform="translate(-5.921 -9.974)"/><path class="cls-4" d="M62.717 776.68c-2.397.8-2.397 9.59-3.196 19.977s-.8 20.586-.8 22.373a13.197 13.197 0 00.8 4.795c.799 1.598.687 2.285 1.598 3.196.799.799.484 2.397.799 2.397h36.756c3.995 0 8.79 1.598 8.79-11.187s-2.398-34.359-3.197-37.555-4.794-1.598-5.593 0-6.392 20.775-8.79 26.368-2.397 7.192-3.995 9.59-3.196 7.19-4.794 2.396-11.986-31.962-13.584-35.158-2.48-7.963-4.794-7.191z" transform="translate(-5.921 -9.974)"/><path class="cls-5" d="M66.712 802.25c-2.397 0-5.593 0-5.593 3.995 0 0-.8 6.393-.8 8.79s-.798 3.196 3.996 3.196h11.187a1.641 1.641 0 001.598-2.397 104.847 104.847 0 00-3.996-10.388c-.799-1.598 0-3.196-3.196-3.196zM99.586 802.25c2.397 0 5.594 0 5.594 3.995 0 0 .799 6.393.799 8.79s.799 3.196-3.996 3.196H90.797a1.641 1.641 0 01-1.598-2.397 104.85 104.85 0 013.995-10.388c.799-1.598 0-3.196 3.196-3.196z" transform="translate(-5.921 -9.974)"/><path class="cls-3" d="M14.765 841.168c-.351.897-.351 1.834 2.146 1.834h7.191c2.397 0 2.299.308 1.598-3.196a17.514 17.514 0 00-2.397-6.393 9.889 9.889 0 00-1.598-2.397 2.79 2.79 0 00-1.598-.799 2.79 2.79 0 00-1.598.799 28.019 28.019 0 00-2.397 3.995c-.48 1.295-1.347 6.157-1.347 6.157z" transform="translate(-5.921 -9.974)"/><path class="cls-3" d="M10.85 819.444h7.191v1.598H10.85z"/><path class="cls-3" d="M26.75 841.168c-.35.897-.35 1.834 2.146 1.834h7.192c2.397 0 2.299.308 1.598-3.196a17.514 17.514 0 00-2.397-6.393 9.889 9.889 0 00-1.598-2.397 2.79 2.79 0 00-1.598-.799 2.79 2.79 0 00-1.598.799 28.019 28.019 0 00-2.398 3.995c-.48 1.295-1.346 6.157-1.346 6.157z" transform="translate(-5.921 -9.974)"/><path class="cls-3" d="M22.836 819.444h7.191v1.598h-7.191z"/><path class="cls-3" d="M38.736 841.168c-.35.897-.35 1.834 2.146 1.834h7.192c2.397 0 2.299.308 1.598-3.196a17.514 17.514 0 00-2.397-6.393 9.889 9.889 0 00-1.599-2.397 2.79 2.79 0 00-1.598-.799 2.79 2.79 0 00-1.598.799 28.019 28.019 0 00-2.397 3.995c-.48 1.295-1.347 6.157-1.347 6.157z" transform="translate(-5.921 -9.974)"/><path class="cls-3" d="M34.822 819.444h7.191v1.598h-7.191z"/><path class="cls-6" d="M9.171 841.168c-.35.897-.35 1.834 2.146 1.834h7.192c2.397 0 2.299.308 1.598-3.196a17.514 17.514 0 00-2.397-6.393 9.889 9.889 0 00-1.598-2.397 2.79 2.79 0 00-1.598-.799 2.79 2.79 0 00-1.599.799 28.019 28.019 0 00-2.397 3.995c-.48 1.295-1.347 6.157-1.347 6.157z" transform="translate(-5.921 -9.974)"/><path class="cls-6" d="M5.257 819.444h7.191v1.598H5.257z"/><path class="cls-6" d="M21.157 841.168c-.351.897-.351 1.834 2.146 1.834h7.192c2.397 0 2.298.308 1.598-3.196a17.514 17.514 0 00-2.398-6.393 9.889 9.889 0 00-1.598-2.397 2.79 2.79 0 00-1.598-.799 2.79 2.79 0 00-1.598.799 28.019 28.019 0 00-2.397 3.995c-.48 1.295-1.347 6.157-1.347 6.157z" transform="translate(-5.921 -9.974)"/><path class="cls-6" d="M17.243 819.444h7.191v1.598h-7.191z"/><path class="cls-6" d="M33.143 841.168c-.351.897-.351 1.834 2.146 1.834h7.191c2.397 0 2.3.308 1.598-3.196a17.514 17.514 0 00-2.397-6.393 9.889 9.889 0 00-1.598-2.397 2.79 2.79 0 00-1.598-.799 2.79 2.79 0 00-1.598.799 28.019 28.019 0 00-2.397 3.995c-.48 1.295-1.347 6.157-1.347 6.157z" transform="translate(-5.921 -9.974)"/><path class="cls-6" d="M29.228 819.444h7.191v1.598h-7.191z"/><path class="cls-6" d="M45.129 841.168c-.351.897-.351 1.834 2.146 1.834h7.191c2.397 0 2.299.308 1.598-3.196a17.514 17.514 0 00-2.397-6.393 9.889 9.889 0 00-1.598-2.397 2.79 2.79 0 00-1.598-.799 2.79 2.79 0 00-1.598.799 28.019 28.019 0 00-2.397 3.995c-.48 1.295-1.347 6.157-1.347 6.157z" transform="translate(-5.921 -9.974)"/><path class="cls-6" d="M41.214 819.444h7.191v1.598h-7.191z"/><path class="cls-3" d="M65.105 841.168c-.351.897-.351 1.834 2.146 1.834h7.191c2.397 0 2.3.308 1.598-3.196a17.514 17.514 0 00-2.397-6.393 9.889 9.889 0 00-1.598-2.397 2.79 2.79 0 00-1.598-.799 2.79 2.79 0 00-1.598.799 28.019 28.019 0 00-2.397 3.995c-.48 1.295-1.347 6.157-1.347 6.157z" transform="translate(-5.921 -9.974)"/><path class="cls-3" d="M61.19 819.444h7.191v1.598H61.19z"/><path class="cls-3" d="M77.09 841.168c-.35.897-.35 1.834 2.147 1.834h7.191c2.397 0 2.299.308 1.598-3.196a17.514 17.514 0 00-2.397-6.393 9.889 9.889 0 00-1.598-2.397 1.998 1.998 0 00-3.196 0 28.019 28.019 0 00-2.397 3.995c-.48 1.295-1.347 6.157-1.347 6.157z" transform="translate(-5.921 -9.974)"/><path class="cls-3" d="M73.176 819.444h7.191v1.598h-7.191z"/><path class="cls-3" d="M89.076 841.168c-.35.897-.35 1.834 2.146 1.834h7.192c2.397 0 2.299.308 1.598-3.196a17.514 17.514 0 00-2.397-6.393 9.889 9.889 0 00-1.598-2.397 1.998 1.998 0 00-3.197 0 28.019 28.019 0 00-2.397 3.995c-.48 1.295-1.347 6.157-1.347 6.157z" transform="translate(-5.921 -9.974)"/><path class="cls-3" d="M85.162 819.444h7.191v1.598h-7.191z"/><path class="cls-6" d="M59.512 841.168c-.352.897-.352 1.834 2.146 1.834h7.191c2.397 0 2.299.308 1.598-3.196a17.514 17.514 0 00-2.397-6.393 9.889 9.889 0 00-1.598-2.397 2.79 2.79 0 00-1.598-.799 2.79 2.79 0 00-1.598.799 28.019 28.019 0 00-2.397 3.995c-.48 1.295-1.347 6.157-1.347 6.157z" transform="translate(-5.921 -9.974)"/><path class="cls-6" d="M55.597 819.444h7.191v1.598h-7.191z"/><path class="cls-6" d="M71.497 841.168c-.35.897-.35 1.834 2.146 1.834h7.192c2.397 0 2.299.308 1.598-3.196a17.514 17.514 0 00-2.397-6.393 9.889 9.889 0 00-1.598-2.397 1.998 1.998 0 00-3.197 0 28.019 28.019 0 00-2.397 3.995c-.48 1.295-1.347 6.157-1.347 6.157z" transform="translate(-5.921 -9.974)"/><path class="cls-6" d="M67.583 819.444h7.191v1.598h-7.191z"/><path class="cls-6" d="M83.483 841.168c-.351.897-.351 1.834 2.146 1.834h7.191c2.398 0 2.3.308 1.599-3.196a17.514 17.514 0 00-2.398-6.393 9.889 9.889 0 00-1.598-2.397 1.998 1.998 0 00-3.196 0 28.019 28.019 0 00-2.397 3.995c-.48 1.295-1.347 6.157-1.347 6.157z" transform="translate(-5.921 -9.974)"/><path class="cls-6" d="M79.568 819.444h7.191v1.598h-7.191z"/><path class="cls-6" d="M95.469 841.168c-.351.897-.351 1.834 2.146 1.834h7.191c2.397 0 2.3.308 1.598-3.196a17.514 17.514 0 00-2.397-6.393 9.889 9.889 0 00-1.598-2.397 1.998 1.998 0 00-3.196 0 28.019 28.019 0 00-2.397 3.995c-.48 1.295-1.347 6.157-1.347 6.157z" transform="translate(-5.921 -9.974)"/><path class="cls-6" d="M91.554 819.444h7.191v1.598h-7.191z"/><path class="cls-3" d="M116.244 841.168c-.35.897-.35 1.834 2.146 1.834h7.192c2.397 0 2.298.308 1.598-3.196a17.514 17.514 0 00-2.397-6.393 9.889 9.889 0 00-1.599-2.397 1.998 1.998 0 00-3.196 0 28.019 28.019 0 00-2.397 3.995c-.48 1.295-1.347 6.157-1.347 6.157z" transform="translate(-5.921 -9.974)"/><path class="cls-3" d="M112.33 819.444h7.191v1.598h-7.191z"/><path class="cls-3" d="M128.23 841.168c-.351.897-.351 1.834 2.146 1.834h7.191c2.397 0 2.3.308 1.598-3.196a17.514 17.514 0 00-2.397-6.393 9.889 9.889 0 00-1.598-2.397 1.998 1.998 0 00-3.196 0 28.019 28.019 0 00-2.397 3.995c-.48 1.295-1.347 6.157-1.347 6.157z" transform="translate(-5.921 -9.974)"/><path class="cls-3" d="M124.315 819.444h7.191v1.598h-7.191z"/><path class="cls-3" d="M140.216 841.168c-.351.897-.351 1.834 2.146 1.834h7.191c2.397 0 2.299.308 1.598-3.196a17.514 17.514 0 00-2.397-6.393 9.889 9.889 0 00-1.598-2.397 1.998 1.998 0 00-3.196 0 28.019 28.019 0 00-2.397 3.995c-.48 1.295-1.347 6.157-1.347 6.157z" transform="translate(-5.921 -9.974)"/><path class="cls-3" d="M136.301 819.444h7.191v1.598h-7.191z"/><path class="cls-6" d="M110.65 841.168c-.35.897-.35 1.834 2.147 1.834h7.191c2.397 0 2.3.308 1.598-3.196a17.514 17.514 0 00-2.397-6.393 9.889 9.889 0 00-1.598-2.397 1.998 1.998 0 00-3.196 0 28.019 28.019 0 00-2.397 3.995c-.48 1.295-1.347 6.157-1.347 6.157z" transform="translate(-5.921 -9.974)"/><path class="cls-6" d="M106.736 819.444h7.191v1.598h-7.191z"/><path class="cls-6" d="M122.637 841.168c-.352.897-.352 1.834 2.146 1.834h7.191c2.397 0 2.299.308 1.598-3.196a17.514 17.514 0 00-2.397-6.393 9.889 9.889 0 00-1.598-2.397 1.998 1.998 0 00-3.196 0 28.019 28.019 0 00-2.398 3.995c-.48 1.295-1.346 6.157-1.346 6.157z" transform="translate(-5.921 -9.974)"/><path class="cls-6" d="M118.722 819.444h7.191v1.598h-7.191z"/><path class="cls-6" d="M134.622 841.168c-.35.897-.35 1.834 2.146 1.834h7.192c2.397 0 2.299.308 1.598-3.196a17.514 17.514 0 00-2.397-6.393 9.889 9.889 0 00-1.598-2.397 1.998 1.998 0 00-3.197 0 28.019 28.019 0 00-2.397 3.995c-.48 1.295-1.347 6.157-1.347 6.157z" transform="translate(-5.921 -9.974)"/><path class="cls-6" d="M130.708 819.444h7.191v1.598h-7.191z"/><path class="cls-6" d="M146.608 841.168c-.351.897-.351 1.834 2.146 1.834h7.191c2.398 0 2.3.308 1.599-3.196a17.514 17.514 0 00-2.398-6.393 9.889 9.889 0 00-1.598-2.397 1.998 1.998 0 00-3.196 0 28.019 28.019 0 00-2.397 3.995c-.48 1.295-1.347 6.157-1.347 6.157z" transform="translate(-5.921 -9.974)"/><path class="cls-6" d="M142.693 819.444h7.191v1.598h-7.191z"/><path class="cls-2" d="M4.058 344.009l2.397-4.795h4.795l4.794 5.594v14.383H4.058v-15.182zM54.398 344.009l2.398-4.795h4.794l4.794 5.594v14.383H54.398v-15.182zM105.538 344.009l2.397-4.795h4.794l4.794 5.594v14.383h-11.985v-15.182zM151.083 344.009l-2.397-4.795h-4.794l-4.794 5.594v14.383h11.985v-15.182zM99.944 344.009l-2.397-4.795h-4.794l-4.795 5.594v14.383h11.986v-15.182zM49.604 344.009l-2.397-4.795h-4.794l-4.795 5.594v14.383h11.986v-15.182z"/><path d="M61.16 340.44c-4.037 2.356-3.238 2.356-8.83 2.356s-12.786-.799-15.183-.799-4.794-3.995-7.191 0-2.398 4.794-1.598 4.794h7.99s-.799-.799 1.598-.799h7.99c.8 0 5.002-.297 8.894-.148s8.686.148 11.083.148 7.191.8 8.79 0a14.059 14.059 0 014.794-.799h9.588s0 .8 1.599.8h34.359a11.599 11.599 0 014.794.798h7.99s0-4.794-3.196-6.392-1.598 1.598-4.794 1.598h-15.981c-3.196 0-3.196.799-5.593 0a12.858 12.858 0 01-3.637-1.644s-1.158.046-5.952.046-9.4-.8-11.187-.8c-1.598 0-2.397 2.398-4.794 2.398s-1.598-2.397-3.995-2.397-17.539.84-17.539.84z" transform="translate(-5.921 -9.974)" fill="#ccc"/></svg>