<svg id="Layer_1" data-name="Layer 1" xmlns="http://www.w3.org/2000/svg" width="340.795" height="723.176"><defs><style>.cls-1{fill:#999}.cls-2{fill:#666}</style></defs><path class="cls-1" d="M300.26 391.011l-40.184 10.753-29.404-29.423 10.78-40.177 40.183-10.752 29.404 29.423-10.779 40.176z"/><circle class="cls-2" cx="270.759" cy="361.448" r="18.38"/><path class="cls-1" d="M301.08 230.306l-40.184 10.753-29.404-29.424 10.78-40.176 40.183-10.753 29.404 29.423-10.779 40.177z"/><circle class="cls-2" cx="271.579" cy="200.742" r="18.38"/><path class="cls-1" d="M300.26 69.6l-40.184 10.753-29.404-29.424 10.78-40.176L281.635 0l29.404 29.423L300.26 69.6z"/><circle class="cls-2" cx="270.759" cy="40.036" r="18.38"/><path class="cls-1" d="M301.08 551.717l-40.184 10.753-29.404-29.423 10.78-40.177 40.183-10.753 29.404 29.424-10.779 40.176z"/><circle class="cls-2" cx="271.579" cy="522.154" r="18.38"/><path class="cls-1" d="M300.26 712.423l-40.184 10.753-29.404-29.424 10.78-40.176 40.183-10.753 29.404 29.424-10.779 40.176z"/><circle class="cls-2" cx="270.759" cy="682.859" r="18.38"/><path d="M280.756 421.134l-36.926-36.866a3.404 3.404 0 01-.898-2.871l6.94-38.035a3.327 3.327 0 012.628-2.62l38.054-6.752a3.326 3.326 0 012.869.906l36.845 36.785a6.507 6.507 0 009.922-.806c5.915-8.273 8.799-18.108 8.81-26.062a10.455 10.455 0 00-.08-1.64c-.56-10.25-6.268-32.232-24.282-49.23-17.36-16.505-49.64-33.769-85.657-18.569-4.348 1.798-10.09 3.84-16.15-2.236C216.774 266.898 68.67 109.18 68.67 109.18c-12.688-14.776-36.221-13.743-49.933-.152a36.728 36.728 0 00-10.532 25.65 31.557 31.557 0 0010.707 24.284s156.481 147.315 163.605 154.54c3.193 3.285 4.172 6.32 4.168 9.108a15.47 15.47 0 01-1.977 7.048 57.706 57.706 0 00-6.105 26.557c-.031 21.974 10.103 45.11 24.186 59.233 19.978 20.035 39.323 23.752 49.244 24.34a43.843 43.843 0 0028.054-8.734 6.674 6.674 0 00.67-9.92zM36.645 143.164a11.538 11.538 0 1116.317.022 11.682 11.682 0 01-16.317-.023z" transform="translate(-8.205 -6.824)" fill="#fff"/></svg>