<svg id="Layer_1" xmlns="http://www.w3.org/2000/svg" viewBox="0 0 302.3 248.4"><style>.st0{fill:#0b72b9}</style><path class="st0" d="M298.5 3.9C296 1.4 292.6 0 289.1 0H138.2C130.9 0 125 5.9 125 13.2V235c0 7.3 5.9 13.2 13.2 13.2H289c7.3 0 13.2-5.9 13.2-13.2V13.2c.2-3.5-1.2-6.8-3.7-9.3zm-85 5.3c2.1 0 3.9 1.7 3.9 3.9s-1.7 3.9-3.9 3.9c-2.1 0-3.9-1.7-3.9-3.9 0-2.1 1.7-3.8 3.9-3.9zm.2 233.6c-4.3 0-7.8-3.5-7.8-7.8s3.5-7.8 7.8-7.8 7.8 3.5 7.8 7.8c-.1 4.2-3.5 7.7-7.8 7.8zm79.8-21.1H133.9V26.6h159.6v195.1zM108.7 109.2H55.6c-5.8 0-10.6 5.7-10.6 12.6v113.8c0 7 4.8 12.6 10.6 12.6h53.1c5.8 0 10.6-5.7 10.6-12.6V121.9c0-7-4.8-12.7-10.6-12.7zm1.3 122H54.3V127.1H110v104.1z"/><path class="st0" d="M54 202.4H5.6c-.3 0-.6-.3-.6-.6V99.7c0-.4.2-.7.6-.7H64c.3 0 .6.3.6.6V127h4.9V93.4c.1-5.5-4.2-10.1-9.7-10.2H10.3C4.6 83.2 0 87.7 0 93.3v118.4c0 5.7 4.5 10.5 10.3 10.6H54v-19.9zM30.2 90.3h9.3c.7 0 1.2.6 1.2 1.2 0 .7-.6 1.2-1.2 1.2h-9.3c-.7 0-1.2-.6-1.2-1.2s.5-1.1 1.2-1.2zM35 217.7c-3 0-5.4-2.4-5.4-5.4 0-3 2.4-5.4 5.4-5.4 3 0 5.4 2.4 5.4 5.4 0 2.9-2.4 5.4-5.4 5.4z"/></svg>