<svg xmlns="http://www.w3.org/2000/svg" width="253.666" height="207.463"><g fill="#ffba60"><path d="M25.517 92.522a39.761 39.761 0 0 1 11.31-37.323 1.4 1.4 0 0 0-1.257-2.39c-16.175 3.44-26.267 19.04-25.09 36.227-2.29.886-3.535 3.983-2.85 7.2.72 3.389 3.278 5.632 5.906 5.295 5.88 13.709 19.3 20.415 31.721 21.796a1.888 1.888 0 0 0 .934-3.518c-9.894-5.73-18.217-15.732-20.675-27.292z"/><path d="M170.411 24.44c-.667-1.053-1.357-2.012-2.048-2.973A44.41 44.41 0 0 0 156.27 9.788c-5.316-3.163-10.399-4.382-16.073-3.176a19.79 19.79 0 0 0-10.222 5.626C114.059 27.087 86.566 41.83 68.909 45.585s-16.664 3.633-16.664 3.633a40.59 40.59 0 0 0 10.458 70.801c6.033 3.187 10.785 1.601 10.933 7.5s-.747 43.311-.23 50.947 1.248 11.905 4.936 14.883c3.73 2.968 23.102 5.615 30.936 3.95s5.06-4.928 1.899-19.79-15.798-54.928-4.873-57.25c20.452-4.35 32.68.705 49.982 3.399 4.12.628 6.39.721 8.932.18s7.75-2.489 13.055-10.831a44.86 44.86 0 0 0 6.293-15.59c.231-1.2.463-2.399.677-3.685 1.68-10.625 1.127-23.209-1.575-35.912-2.725-12.607-7.351-24.372-13.252-33.385zm2.875 68.874c-1.296 7.227-4.913 13.525-8.85 14.363s-8.663-3.687-12.787-9.761c-4.824-7.073-9.26-17.947-11.935-30.523-2.683-12.616-3.065-24.398-1.537-32.822 1.305-7.182 4.057-11.928 7.953-12.756 3.937-.838 9.45 2.194 13.596 8.173a87.218 87.218 0 0 1 13.557 63.327zM197.034 36.727L189.09 47.22a32.908 32.908 0 0 1 12.793 21.687 32.907 32.907 0 0 1-6.32 24.374l10.535 7.938a45.964 45.964 0 0 0 8.825-34.104 46.059 46.059 0 0 0-17.889-30.39zM223.347 17.697L212.604 31.89a44.507 44.507 0 0 1 17.301 29.33 44.506 44.506 0 0 1-8.546 32.964l14.246 10.735a62.164 62.164 0 0 0 11.936-46.122 62.293 62.293 0 0 0-24.194-41.1z"/></g></svg>