<svg xmlns="http://www.w3.org/2000/svg" width="20" height="19.998"><path d="M19.423 15.66a16.8 16.8 0 0 0-3.509-2.348c-1.052-.505-1.437-.495-2.182.042-.62.448-1.02.864-1.734.708a10.342 10.342 0 0 1-3.483-2.577 10.268 10.268 0 0 1-2.577-3.483c-.151-.719.266-1.114.708-1.734.536-.745.552-1.13.042-2.182A16.467 16.467 0 0 0 4.343.576c-.765-.765-.937-.6-1.359-.448A7.734 7.734 0 0 0 1.74.789 3.754 3.754 0 0 0 .243 2.365c-.3.64-.64 1.833 1.109 4.946a27.6 27.6 0 0 0 4.851 6.474l.005.005.005.005a27.706 27.706 0 0 0 6.472 4.852c3.113 1.749 4.306 1.406 4.946 1.109a3.69 3.69 0 0 0 1.578-1.491 7.731 7.731 0 0 0 .661-1.244c.151-.424.323-.596-.447-1.361z" fill="#0b72b9"/></svg>