<svg data-name="Layer 1" xmlns="http://www.w3.org/2000/svg" width="476.129" height="592.677"><path d="M256.854 4.086c-116.72-22.95-229.84 53.11-252.77 169.7-22.93 116.58 53 229.68 169.73 252.63a214.474 214.474 0 00140.89-20.21l39.98-26.46-.23-.35a214.815 214.815 0 0072.13-122.67c22.92-116.59-53-229.69-169.73-252.64zm124.31 243.85a169.026 169.026 0 01-306.15 61.46 168.929 168.929 0 01280.62-188.15 167.883 167.883 0 0125.53 126.69z" fill="#fff"/><path d="M465.404 589.086a23.087 23.087 0 01-31.84-7.12l-117.33-176.55c-.51.27-1.02.54-1.53.79l39.98-26.46 117.87 177.36a23.247 23.247 0 01-7.15 31.98z"/></svg>