<svg data-name="Layer 1" xmlns="http://www.w3.org/2000/svg" viewBox="0 0 185.9 211.49"><path d="M133.76 192.85l-83.3 18.21a18.61 18.61 0 0 1-22.15-14.21L.43 69.35a18.62 18.62 0 0 1 14.21-22.16 18.3 18.3 0 0 1 2.54-.37l73.14-5.67a18.61 18.61 0 0 1 19.11 12.71l38 115a18.62 18.62 0 0 1-11.83 23.52 19.05 19.05 0 0 1-1.84.47z" fill="#05436f"/><path d="M152.16 172.85l-83.3 18.21a18.59 18.59 0 0 1-22.15-14.21L18.83 49.35A18.61 18.61 0 0 1 33.04 27.2a18.32 18.32 0 0 1 2.54-.38l73.14-5.67a18.61 18.61 0 0 1 19.11 12.72l38 115A18.62 18.62 0 0 1 154 172.38c-.58.16-1.21.33-1.84.47z" fill="#0b72b9"/><path d="M171.25 153.76l-83.3 16.2a18.6 18.6 0 0 1-22.15-14.2L37.95 28.25A18.61 18.61 0 0 1 52.16 6.1a18.32 18.32 0 0 1 2.54-.38L127.84.06a18.6 18.6 0 0 1 19.11 12.71l38 115c3.47 10.44-2.91 23.68-13.7 25.99z" fill="#7fc4fd"/></svg>