<svg xmlns="http://www.w3.org/2000/svg" width="75.692" height="82"><g fill="#ffba60"><path d="M69.365 18.864a1.582 1.582 0 0 0 2.227 0l2.227-2.227a1.582 1.582 0 0 0 0-2.227l-5.026-5.026a1.582 1.582 0 0 0-2.227 0l-2.227 2.226a1.582 1.582 0 0 0 0 2.227l5.026 5.026zm-65.265 0a1.582 1.582 0 0 0 2.227 0l5.026-5.026a1.582 1.582 0 0 0 0-2.227L9.126 9.384a1.582 1.582 0 0 0-2.227 0l-5.027 5.005a1.582 1.582 0 0 0 0 2.227z"/><path d="M42.577 6.6V3.15A3.163 3.163 0 0 0 39.423 0h-3.154a3.163 3.163 0 0 0-3.154 3.154V6.6a37.846 37.846 0 1 0 9.462 0zm-1.971 43.227v3.785a2.76 2.76 0 1 1-5.519 0v-3.781a6.316 6.316 0 0 1 0-11.354V18.923a2.76 2.76 0 0 1 5.519 0v19.554a6.316 6.316 0 0 1 0 11.354z"/></g></svg>