<?xml version="1.0" encoding="utf-8"?>
<!-- Generator: Adobe Illustrator 23.0.4, SVG Export Plug-In . SVG Version: 6.00 Build 0)  -->
<svg version="1.1" id="Layer_1" xmlns="http://www.w3.org/2000/svg" xmlns:xlink="http://www.w3.org/1999/xlink" x="0px" y="0px"
	 viewBox="0 0 471.9 383" style="enable-background:new 0 0 471.9 383;" xml:space="preserve">
<style type="text/css">
	.st0{fill:#FFFFFF;}
</style>
<path class="st0" d="M471.9,44.5c-17.4,7.7-36,12.9-55.6,15.3c20-12,35.4-31,42.6-53.6c-18.7,11.1-39.4,19.2-61.5,23.5
	C379.7,10.8,354.5-1,326.7-1c-53.5,0-96.8,43.4-96.8,96.9c0,7.6,0.8,15,2.5,22.1C151.9,114,80.5,75.4,32.8,16.7
	c-8.3,14.3-13.1,31-13.1,48.7c0,33.6,17.2,63.3,43.2,80.7c-16-0.4-31-4.8-44-12.1v1.2c0,47,33.4,86.1,77.7,95
	c-8.1,2.2-16.7,3.4-25.5,3.4c-6.2,0-12.3-0.6-18.2-1.8c12.3,38.5,48.1,66.5,90.5,67.3c-33.1,26-74.9,41.5-120.3,41.5
	c-7.8,0-15.5-0.5-23.1-1.4C42.7,367,93.6,383,148.2,383c178.3,0,275.7-147.7,275.7-275.8c0-4.2-0.1-8.4-0.3-12.5
	C442.5,81,458.9,64,471.9,44.5z"/>
</svg>
