<svg xmlns="http://www.w3.org/2000/svg" width="240.511" height="206.099"><path d="M171.793 203.037a2.734 2.734 0 0 0-2.255-2.308l-11.972-1.02c-6.335-1.664-11.005-8.7-11.972-15.193l-.644-4.134H95.56l-.644 4.08c-1.02 6.5-5.637 13.529-11.972 15.193l-11.972 1.02a2.929 2.929 0 0 0-2.255 2.308 2.754 2.754 0 0 0 2.738 3.114h97.6a2.712 2.712 0 0 0 2.738-3.06zM236.7 3.758A12.968 12.968 0 0 0 227.572 0H12.992a12.875 12.875 0 0 0-9.126 3.758A13.075 13.075 0 0 0 0 12.884v146.024a12.978 12.978 0 0 0 3.865 9.126 12.719 12.719 0 0 0 9.019 3.758h214.741a12.627 12.627 0 0 0 9.019-3.758 13.075 13.075 0 0 0 3.865-9.126V12.884a12.8 12.8 0 0 0-3.809-9.126zm-116.445 155.15a4.295 4.295 0 1 1 4.295-4.295 4.307 4.307 0 0 1-4.295 4.295zm109.464-21.474H10.844a2.154 2.154 0 0 1-2.147-2.147V15.032a6.461 6.461 0 0 1 6.442-6.442h210.285a6.461 6.461 0 0 1 6.442 6.442v120.255a2.154 2.154 0 0 1-2.147 2.147z" fill="#0b72b9"/></svg>